<svg id="visual" viewBox="0 0 900 600" width="900" height="600" xmlns="http://www.w3.org/2000/svg" xmlns:xlink="http://www.w3.org/1999/xlink" version="1.1"><rect x="0" y="0" width="900" height="600" fill="#080041"></rect><path d="M380 0L515 0L515 55L525 55L525 109L369 109L369 164L492 164L492 218L328 218L328 273L326 273L326 327L487 327L487 382L332 382L332 436L469 436L469 491L514 491L514 545L376 545L376 600L0 600L0 545L0 545L0 491L0 491L0 436L0 436L0 382L0 382L0 327L0 327L0 273L0 273L0 218L0 218L0 164L0 164L0 109L0 109L0 55L0 55L0 0L0 0Z" fill="#113f67"></path><path d="M253 0L352 0L352 55L353 55L353 109L346 109L346 164L306 164L306 218L227 218L227 273L269 273L269 327L209 327L209 382L237 382L237 436L339 436L339 491L336 491L336 545L231 545L231 600L0 600L0 545L0 545L0 491L0 491L0 436L0 436L0 382L0 382L0 327L0 327L0 273L0 273L0 218L0 218L0 164L0 164L0 109L0 109L0 55L0 55L0 0L0 0Z" fill="#447e9b"></path><path d="M147 0L133 0L133 55L192 55L192 109L224 109L224 164L169 164L169 218L110 218L110 273L129 273L129 327L181 327L181 382L81 382L81 436L207 436L207 491L211 491L211 545L119 545L119 600L0 600L0 545L0 545L0 491L0 491L0 436L0 436L0 382L0 382L0 327L0 327L0 273L0 273L0 218L0 218L0 164L0 164L0 109L0 109L0 55L0 55L0 0L0 0Z" fill="#87c0cd"></path></svg>